<svg version="1.1" xmlns="http://www.w3.org/2000/svg" xmlns:xlink="http://www.w3.org/1999/xlink" width="48" height="48"><defs><linearGradient x1="12.90437" y1="11.67152" x2="61.86366" y2="63.09651" gradientUnits="userSpaceOnUse" id="color-1"><stop offset="0" stop-color="#000000" stop-opacity="0.3"></stop><stop offset="1" stop-color="#000000" stop-opacity="0"></stop></linearGradient><filter id="dropshadow-base"><feColorMatrix type="matrix" values="0 0 0 0 0  0 0 0 0 0  0 0 0 0 0  0 0 0 .8 0"></feColorMatrix> <feOffset dx="0" dy="1"></feOffset> <feGaussianBlur stdDeviation="1"></feGaussianBlur> <feComposite in="SourceGraphic"></feComposite></filter><filter id="dropshadow-banner" x="-10%" y="-10%" width="120%" height="130%"><feColorMatrix type="matrix" values="0 0 0 0 0  0 0 0 0 0  0 0 0 0 0  0 0 0 .4 0"></feColorMatrix> <feOffset dx="0" dy="1"></feOffset> <feGaussianBlur stdDeviation="0.5"></feGaussianBlur> <feComposite in="SourceGraphic"></feComposite></filter></defs><g fill="none" fill-rule="nonzero" stroke="none" stroke-width="none" stroke-linecap="butt" stroke-linejoin="miter" stroke-miterlimit="10" stroke-dasharray="" stroke-dashoffset="0" font-family="none" font-weight="none" font-size="none" text-anchor="none" style="mix-blend-mode: normal"><path d="M2,24c0,-12.15026 9.84974,-22 22,-22c12.15026,0 22,9.84974 22,22c0,12.15026 -9.84974,22 -22,22c-12.15026,0 -22,-9.84974 -22,-22z" id="base 1 5" fill="#c32222" stroke-width="1"></path><path d="M13.62635,35.60649c-0.44614,-0.44614 -0.72199,-1.06256 -0.72199,-1.74371v-17.25987c0,-1.3623 1.1034,-2.4657 2.4657,-2.4657h5.15947c0.50547,-1.4301 1.8616,-2.4657 3.47047,-2.4657c1.01531,0 1.92997,0.41243 2.5937,1.07616l1.38954,1.38954h4.6467c0.68115,0 1.29757,0.27585 1.74371,0.72199l11.50121,11.50121c-1.17696,11.03387 -10.51113,19.62956 -21.85501,19.63958z" fill="url(#color-1)" stroke-width="1"></path><path d="M32.62994,14.13721h-5.15947c-0.50547,-1.4301 -1.8616,-2.4657 -3.47047,-2.4657c-1.60887,0 -2.965,1.03559 -3.47047,2.4657h-5.15947c-1.3623,0 -2.4657,1.1034 -2.4657,2.4657v17.25987c0,1.3623 1.1034,2.4657 2.4657,2.4657h17.25987c1.3623,0 2.4657,-1.1034 2.4657,-2.4657v-17.25987c0,-1.3623 -1.1034,-2.4657 -2.4657,-2.4657zM24,14.13721c0.67807,0 1.23285,0.54862 1.23285,1.23285c0,0.68423 -0.55478,1.23285 -1.23285,1.23285c-0.67807,0 -1.23285,-0.54862 -1.23285,-1.23285c0,-0.68423 0.55478,-1.23285 1.23285,-1.23285zM21.5343,31.39709l-4.93139,-4.93139l1.74448,-1.74448l3.18691,3.18691l8.11831,-8.11831l1.74448,1.74448z" fill="none" stroke-width="0"></path><path d="M35.09563,16.60291v17.25987c0,1.3623 -1.1034,2.4657 -2.4657,2.4657h-17.25987c-1.3623,0 -2.4657,-1.1034 -2.4657,-2.4657v-17.25987c0,-1.3623 1.1034,-2.4657 2.4657,-2.4657h5.15947c0.50547,-1.4301 1.8616,-2.4657 3.47047,-2.4657c1.60887,0 2.965,1.03559 3.47047,2.4657h5.15947c1.3623,0 2.4657,1.1034 2.4657,2.4657zM22.76715,15.37006c0,0.68423 0.55478,1.23285 1.23285,1.23285c0.67807,0 1.23285,-0.54862 1.23285,-1.23285c0,-0.68423 -0.55478,-1.23285 -1.23285,-1.23285c-0.67807,0 -1.23285,0.54862 -1.23285,1.23285zM31.39709,21.5343l-1.74448,-1.74448l-8.11831,8.11831l-3.18691,-3.18691l-1.74448,1.74448l4.93139,4.93139z" fill="#ffffff" stroke-width="0"></path><path d="M2,24c0,-12.15026 9.84974,-22 22,-22c12.15026,0 22,9.84974 22,22c0,12.15026 -9.84974,22 -22,22c-12.15026,0 -22,-9.84974 -22,-22z" id="base 1 1 1" fill="none" stroke-width="1"></path><g fill="#000000" stroke-width="1" font-family="Roboto, sans-serif" font-weight="400" font-size="14" text-anchor="start"></g><rect x="2" y="2" width="44" height="22" fill="none" stroke-width="1"></rect><path d="M2,24v-22h44v22z" fill="none" stroke-width="1"></path><path d="M2,24v-22h44v22z" fill="none" stroke-width="1"></path><path d="M2,24v-22h44v22z" fill="none" stroke-width="1"></path><path d="M2,24v-22h44v22z" fill="none" stroke-width="1"></path></g></svg>